<svg aria-hidden="true" style="position:absolute;width:0;height:0;overflow:hidden" xmlns="http://www.w3.org/2000/svg" xmlns:xlink="http://www.w3.org/1999/xlink">
<defs>
<symbol id="antena" viewBox="0 0 30 32">
<title>antena</title>
<path d="m29.859 22.098-8.443-8.505.937-4.615c.242.094.499.144.758.146h.006a2.159 2.159 0 1 0-2.008-1.435l-4.96.605L8.058.161a.534.534 0 0 0-.377-.16.532.532 0 0 0-.373.155L5.795 1.66a.534.534 0 0 0 0 .754l.814.826a14.943 14.943 0 0 0 2.519 17.663.513.513 0 0 0 .146.098c-.034.18-.051.364-.052.547v6.187h-6.4a2.67 2.67 0 0 0-2.667 2.667v1.067c0 .295.239.533.533.533h24.533a.533.533 0 0 0 .533-.533v-1.067a2.67 2.67 0 0 0-2.667-2.667h-6.4v-2.742a15.09 15.09 0 0 0 3.049.32 14.854 14.854 0 0 0 7.04-1.783l.818.823a.534.534 0 0 0 .377.16.532.532 0 0 0 .373-.155l1.513-1.504a.534.534 0 0 0 0-.754zM22.366 6.233a1.066 1.066 0 1 1 .752 1.822h-.003a1.067 1.067 0 0 1-.747-1.823h-.002zM21.11 9.738l-.598 2.946-1.175-1.182 1.774-1.763zm-.606-.902-1.92 1.909-1.485-1.493 3.405-.415zM23.09 28.8a1.6 1.6 0 0 1 1.6 1.6v.533H1.223V30.4a1.6 1.6 0 0 1 1.6-1.6H23.09zm-7.467-2.133v1.067H10.29v-1.067h5.333zM10.29 25.6v-4.053c0-1.294 1.196-2.347 2.667-2.347s2.667 1.053 2.667 2.347V25.6h-5.333zm6.4-1.696v-2.357c0-1.882-1.675-3.413-3.733-3.413a3.8 3.8 0 0 0-3.281 1.786A13.87 13.87 0 0 1 7.397 4.033l18.602 18.708a13.818 13.818 0 0 1-9.309 1.163zm11.289-.684L6.922 2.039l.755-.752 7.935 7.98c.004 0 .006.007.01.01l13.115 13.191-.757.752z"/>
</symbol>
<symbol id="astronaut" viewBox="0 0 29 32">
<title>astronaut</title>
<path d="M28.361 13.626a2.04 2.04 0 0 0-1.364-.809 2.04 2.04 0 0 0-1.537.404l-1.437 1.102-2.178 1.626-1.558-.621c2.779-1.247 4.721-4.026 4.721-7.253 
0-4.387-3.583-7.956-7.988-7.956S9.032 3.688 9.032 8.075c0 1.59.476 3.069 1.285 4.313l-3.172-.028H7.14c-.01 0-.018.005-.027.005a.576.576 0 0 
0-.178.036c-.015.005-.03.009-.044.015l-.022.007-3.71 1.832-.001.001-2.173 1.045a.432.432 0 0 0-.072.04 2.043 2.043 0 0 0 .525 3.654 2.038 2.038 0 0 0 
1.582-.147l1.593-.847 2.598-1.342 1.557-.009-6.245 6.215-.002.001-1.536 1.53c-.363.361-.562.84-.562 1.351s.2.991.562 1.353c.373.371.863.557 1.353.557s.98-.186 1.354-.557L5.2 
25.598l1.998-1.491 1.034 1.029-2.022 2.013-.002.001-1.536 1.53c-.363.361-.562.84-.562 1.351s.2.991.562 1.353c.373.371.864.557 1.354.557s.981-.186 1.354-.557l3.995-3.978.001-.002 
1.159-1.148-.004-.004c.007-.007.018-.01.025-.018l5.928-6.493 3.983.567a.611.611 0 0 0 
.301-.038c.02-.007.038-.017.057-.027.022-.011.045-.017.066-.031l3.687-2.448c.013-.009.021-.024.034-.034.015-.012.033-.017.046-.029l1.459-1.367a2.041 2.041 0 0 0
 .243-2.71zM2.445 17.769a.814.814 0 0 1-.641.059.819.819 0 0 1-.244-1.446l1.507-.725.515 1.506-1.138.605zm4.013-2.097-1.777.918-.504-1.473 2.326-1.148-.045 1.703zm17.327-7.598a6.661 6.661 0 0 
 1-.687 2.937L18.3 8.832a2.136 2.136 0 0 0-.905-1.593l1.68-5.577c2.728.868 4.71 3.413 4.71 6.412zm-13.528 0c0-3.712 3.034-6.732 6.764-6.732.29 0 .574.024.855.06l-1.643 5.455c-.022-.001-.043-.007-.066-.007-1.185
0-2.149.961-2.149 2.142s.964 2.142 2.149 2.142c.797 0 1.485-.44 1.857-1.084l4.432 2.014a6.76 6.76 0 0 
1-5.436 2.742c-3.73 0-6.764-3.02-6.764-6.732zm6.835.918c0 .506-.415.918-.925.918s-.925-.412-.925-.918.415-.918.925-.918.925.412.925.918zM2.829 26.233a.698.698 0 0 1-.98.001.682.682 
0 0 1 0-.968l1.104-1.1.977.973-1.1 1.096zm3.688 4.285a.698.698 0 0 1-.981.001.682.682 0 0 1 0-.968l1.105-1.1.977.973-1.101 1.096zm3.995-3.981-.002.001-2.025 2.02-.977-.973 2.023-2.014v-.001l.002-.001a.598.598 
0 0 0 .103-.155c.008-.016.023-.029.03-.046.019-.047.022-.098.029-.148.004-.028.016-.054.016-.083 0-.041-.015-.081-.023-.121-.007-.037-.007-.074-.021-.11a.596.596 0 0 
0-.105-.158c-.012-.013-.016-.031-.029-.044h-.001l-.001-.002-1.844-1.836c-.02-.02-.045-.028-.067-.044a.596.596 0 0 0-.1-.066.522.522 0 0 0-.107-.037.587.587 0 0 0-.118-.023.585.585 0 0 
0-.11.006.596.596 0 0 0-.119.023.533.533 0 0 0-.108.051c-.023.013-.048.017-.07.033l-2.035 1.519-1.034-1.029 2.753-2.738 5.004 4.921-1.064 1.055zm7.825-8.052c-.018-.002-.034.004-.052.003a.65.65 0 0 
0-.233.032.646.646 0 0 0-.206.124c-.015.013-.032.019-.046.034l-5.391 5.905-4.967-4.885 3.251-3.234a.613.613 0 0 0-.436-1.045v-.001l-2.546.015.032-1.845 3.562.031a7.973 7.973 0 0 0 5.716 2.411c.502 
0 .991-.052 1.468-.141.046.037.091.074.149.097l2.765 1.102.175.87.204 1.016-3.446-.49zm4.637.205-.359-1.788 1.66-1.239 1.086 1.442-2.387 1.585zm4.308-3.249-.962.901-1.069-1.419.954-.731a.84.84 0 0 
1 .623-.164.82.82 0 0 1 .453 1.413z"/>
</symbol>
<symbol id="clock" viewBox="0 0 31 32">
<title>clock</title>
<path d="M30.84 15.301C30.838 6.849 23.985-.002 15.532 0S.229 6.855.231 15.308A15.304 15.304 0 0 0 10.88 29.884a.662.662 0 0 0 .529-.065.637.637 0 0 0 .283-.356l3.865-12.25a1.912 1.912 0 1 
0-.84-3.635L9.611 8.471a.637.637 0 0 0-.902.902l5.103 5.109a1.876 1.876 0 0 0 .536 2.309l-3.683 11.673C3.387 25.783-.339 17.71 2.342 10.432S13.096-.572 20.374 2.109s11.004 10.754 8.323 18.032a14.042 14.042 
0 0 1-7.462 7.973l-.398-1.874a.638.638 0 0 0-1.048-.344l-3.837 3.426a.637.637 0 0 0 .231 1.084l4.899 1.563a.638.638 0 0 0 .819-.74l-.391-1.839a15.255 15.255 0 0 0 9.329-14.089zm-15.305-.637a.638.638 
0 1 1 0 1.277.638.638 0 0 1 0-1.277zm2.1 14.864 2.184-1.948.603 2.84-2.787-.892z"/>
</symbol>
<symbol id="comp" viewBox="0 0 41 32">
<title>comp</title>
<path d="M2.073 31.933h33.168a2.073 2.073 0 0 0 2.073-2.073v-2.764a2.073 2.073 
0 0 0-2.073-2.073h-.691V7.791l3.925-3.718A2.086 2.086 0 0 0 40.887.746a2.086 2.086 0 0 0-3.38 2.339L34.55 5.888V4.294a2.073 2.073 0 0 0-2.073-2.073H4.837a2.073 2.073 0 0 0-2.073 2.073v20.73h-.691A2.073 2.073 
0 0 0 0 27.097v2.764c0 1.145.928 2.073 2.073 2.073zM39.387 1.529a.69.69 0 1 1 0 1.381.69.69 0 0 1 0-1.381zM4.146 4.293a.69.69 0 0 1 .691-.691h27.64a.69.69 0 0 1 .691.691v2.902l-1.382 1.313V5.675a.69.69 0 0 
0-.691-.691H6.219a.69.69 0 0 0-.691.691V22.95a.69.69 0 0 0 .691.691h24.876a.69.69 0 0 0 .691-.691V10.409L33.168 9.1v15.923H4.146V4.293zm6.219 8.983a2.071 2.071 0 0 0-1.064 3.855 2.072 2.072 0 0 0 
2.499-.293l2.402 1.205a.69.69 0 0 0 .825-.159l5.106-5.744 5.019 3.761a.69.69 0 0 0 .889-.051l4.362-4.132v10.54H6.909V6.365h23.494v3.449l-4.889 4.63-5.061-3.794a.692.692 0 0 0-.931.093l-5.176 
5.824-1.935-.968c.014-.083.023-.167.026-.251a2.073 2.073 0 0 0-2.073-2.073zm.691 2.073a.69.69 0 1 1-1.381 0 .69.69 0 0 1 1.381 0zm4.146 11.056h6.91v.691a.69.69 0 0 1-.691.691h-5.528a.69.69 0 0 
1-.691-.691v-.691zm-13.82.691a.69.69 0 0 1 .691-.691H13.82v.691c0 1.145.928 2.073 2.073 2.073h5.528a2.073 2.073 0 0 0 2.073-2.073v-.691h11.747a.69.69 0 0 1 .691.691v2.764a.69.69 0 0 1-.691.691H2.073a.69.69 0 0
 1-.691-.691v-2.764z"/>
 </symbol>
 <symbol id="envelope" viewBox="0 0 43 32">
 <title>envelope</title>
 <path fill="#757575" style="fill:var(--color1, #757575)" d="M38.667 0H4C1.794 0 0 1.794 0 4v24c0 2.206 1.794 4 4 4h34.667c2.206 0 
 4-1.794 4-4V4c0-2.206-1.794-4-4-4zm0 2.667c.181 0 .353.038.511.103L21.334 18.236 3.49 2.77a1.32 1.32 0 0 1 .511-.103h34.667zm0 26.666H4A1.334 1.334 0 0 1 2.667 28V5.587L20.46 21.008a1.335 1.335 0 0 0 
 1.748 0L40.001 5.587V28c0 .736-.598 1.333-1.333 1.333z"/>
 </symbol>
 <symbol id="facebook" viewBox="0 0 32 32">
 <title>facebook</title>
 <path d="M19 6h5V0h-5c-3.86 0-7 3.14-7 7v3H8v6h4v16h6V16h5l1-6h-6V7c0-.542.458-1 1-1z"/>
 </symbol>
 <symbol id="instagram" viewBox="0 0 32 32">
 <title>instagram</title>
 <path d="M16 2.881c4.275 0 4.781.019 6.462.094 1.563.069 2.406.331 2.969.55a4.952 4.952 0 0 1 1.837 1.194 5.015 5.015 0 0 1 1.2 1.838c.219.563.481 1.412.55 2.969.075 1.688.094 2.194.094 6.463s-.019 
 4.781-.094 6.463c-.069 1.563-.331 2.406-.55 2.969a4.94 4.94 0 0 1-1.194 1.837 5.02 5.02 0 0 1-1.837 1.2c-.563.219-1.413.481-2.969.55-1.688.075-2.194.094-6.463.094s-4.781-.019-6.463-.094c-1.563-.069-2.406-
 .331-2.969-.55a4.952 4.952 0 0 1-1.838-1.194 5.02 5.02 0 0 1-1.2-1.837c-.219-.563-.481-1.413-.55-2.969-.075-1.688-.094-2.194-.094-6.463s.019-4.781.094-6.463c.069-1.563.331-2.406.55-2.969a4.964 4.964 0 0 1 
 1.194-1.838 5.015 5.015 0 0 1 1.838-1.2c.563-.219 1.412-.481 2.969-.55 1.681-.075 2.188-.094 6.463-.094zM16 0c-4.344 0-4.887.019-6.594.094-1.7.075-2.869.35-3.881.744-1.056.412-1.95.956-2.837 1.85a7.833 
 7.833 0 0 0-1.85 2.831C.444 6.538.169 7.7.094 9.4.019 11.113 0 11.656 0 16s.019 4.887.094 6.594c.075 1.7.35 2.869.744 3.881.413 1.056.956 1.95 1.85 2.837a7.82 7.82 0 0 0 2.831 1.844c1.019.394 2.181.669 
 3.881.744 1.706.075 2.25.094 6.594.094s4.888-.019 6.594-.094c1.7-.075 2.869-.35 3.881-.744 1.05-.406 1.944-.956 2.831-1.844s1.438-1.781 
 1.844-2.831c.394-1.019.669-2.181.744-3.881.075-1.706.094-2.25.094-6.594s-.019-4.887-.094-6.594c-.075-1.7-.35-2.869-.744-3.881a7.506 7.506 0 0 0-1.831-2.844A7.82 7.82 0 0 0 26.482.843C25.463.449 24.301.174 
 22.601.099c-1.712-.081-2.256-.1-6.6-.1z"/>
 <path d="M16 7.781c-4.537 0-8.219 3.681-8.219 8.219s3.681 8.219 8.219 8.219 8.219-3.681 8.219-8.219A8.221 8.221 0 0 0 16 7.781zm0 13.55a5.331 5.331 0 1 1 0-10.663 5.331 5.331 0 0 1 0 
 10.663zM26.462 7.456a1.919 1.919 0 1 1-3.838 0 1.919 1.919 0 0 1 3.838 0z"/>
 </symbol>
 <symbol id="linkedin" viewBox="0 0 32 32">
 <title>linkedin</title>
 <path d="M29 0H3C1.35 0 0 1.35 0 3v26c0 1.65 1.35 3 3 
 3h26c1.65 0 3-1.35 3-3V3c0-1.65-1.35-3-3-3zM12 26H8V12h4v14zm-2-16c-1.106 0-2-.894-2-2s.894-2 2-2c1.106 0 2 .894 2 2s-.894 2-2 2zm16 16h-4v-8c0-1.106-.894-2-2-2s-2 .894-2 
 2v8h-4V12h4v2.481C18.825 13.35 20.087 12 21.5 12c2.488 0 4.5 2.238 4.5 5v9z"/>
 </symbol>
 <symbol id="Logo1" viewBox="0 0 56 32">
 <title>Logo1</title>
 <path d="m19.934 4.046 3.676 3.48-6.824-.004v16.885h17.836v-6.456l3.672 3.476V4.045H19.933zm14.527 13.497L24.037 7.675h10.424v9.868zm-3.236 4.395H19.609V10.581h.821v10.587h10.795v.769zm-8.872 
 4.717-.429.884-.429-.884h-.36l.626 1.178v.687h.325v-.687l.625-1.178h-.358zm.539 1.865.151-.434h.722l.152.434h.338l-.706-1.865h-.291l-.704 1.865h.337zm.512-1.468.27.773h-.54l.27-.773zm1.709.728a.422.422 
 0 0 0-.07.234v.003c0 .157.055.285.165.383s.259.146.443.146c.185 0 .344-.05.477-.15l.105.124h.361l-.274-.324c.108-.147.161-.335.161-.564h-.27a.74.74 0 0 1-.078.341l-.36-.425.127-.092a.702.702 0 0 
 0 .192-.192l.002-.003a.409.409 0 0 0 .059-.212v-.01a.381.381 0 0 0-.13-.288.467.467 0 0 0-.315-.121h-.019.001c-.15 0-.27.043-.358.129a.452.452 0 0 
 0-.133.346c0 .06.014.122.042.186.029.064.08.142.152.233a1.089 1.089 0 0 0-.277.257zm.841.413a.47.47 0 0 1-.294.105h-.015a.309.309 0 0 1-.208-.081.277.277 0 0 
 1-.084-.199v-.011.001c0-.1.051-.189.154-.267l.04-.028.407.481zm-.334-.827c-.088-.108-.132-.198-.132-.27 0-.062.018-.114.054-.155a.182.182 0 0 1 .137-.062h.016c.051 
 0 .098.02.133.053a.163.163 0 0 1 .055.124v.007a.232.232 0 0 1-.079.174l-.04.031-.142.098zm3.035 1.013a.678.678 0 0 0 .22-.466h-.323c-.017.133-.058.228-.122.285s-.16.086-.287.086c-.139 
 0-.245-.053-.317-.159s-.108-.26-.108-.461v-.165c.002-.199.04-.349.115-.452a.38.38 0 0 1 .325-.155c.121 0 .213.03.275.089s.102.156.118.29h.323c-.021-.205-.093-.362-.219-.474s-.291-.168-.497-.168a.754.754 
 0 0 0-.404.109.714.714 0 0 0-.266.305l-.002.004a1.08 1.08 0 0 0-.094.443v.023-.001.174c.003.172.035.322.096.452s.149.23.261.301c.114.07.245.105.393.105.212 0 .383-.056.511-.167zm1
 .904-.261c.063-.138.095-.299.095-.482v-.123c0-.166-.036-.323-.1-.465l.003.007a.712.712 0 0 0-.27-.313l-.003-.002c-.117-.073-.252-.11-.404-.11s-.286.037-.404.111a.722.722 0 0 
 0-.273.319 1.121 1.121 0 0 0-.096.459v.024-.001.105c.001.178.033.336.097.472a.74.74 0 0 0 .274.317c.119.073.253.11.404.11a.75.75 0 0 0 .405-.11.725.725 0 0 
 0 .271-.318zm-.346-1.054c.079.11.117.269.117.475v.097c0 .21-.039.37-.116.479a.378.378 0 0 1-.331.164h-.013a.386.386 0 0 1-.318-.167l-.001-.001c-.08-.112-.119-.27-.119-.475v-.108c.002-
 .2.042-.356.12-.465a.382.382 0 0 1 .315-.166h.014-.001c.144 0 .254.055.332.165z"/>
 </symbol>
 <symbol id="Logo2" viewBox="0 0 56 32">
 <title>Logo2</title>
 <path d="M26.289 3.487h-.072c-.11-.007-.22-.009-.331-.012h-.239c-.208 0-.421.005-.632.016l-.024-.001-.025.001h.001a14.803 14.803 0 0 
 0-5.606 1.446l.089-.039-.227.11v11.614l.531-.18c.466-.16.962-.304 1.476-.438a17.553 17.553 0 0 1 4.234-.564h.012v1.526c-.201.001-.396.007-.59.017l.031-.001h-.044c-1.192
 .067-2.31.246-3.385.528l.118-.026a16.589 16.589 0 0 0-3.978 1.56l.085-.043V4.104a15.262 15.262 0 0 1 3.976-1.637l.108-.023a15.239 15.239 0 0 1 3.845-.496h.227c.268.007
 .53.019.775.037.707.051 1.362.159 1.994.323l-.077-.017v1.502a11.31 11.31 0 0 0-1.859-.281l-.037-.002c-.13-.011-.259-.022-.38-.022zm2.644 1.536c.333.025.678.037 1.027.037a16.525 16.525 0 0 0 
 4.161-.544l-.115.026a16.584 16.584 0 0 0 3.977-1.562l-.086.043v14.631a15.296 15.296 0 0 1-3.976 1.637l-.108.024a15.337 15.337 0 0 1-3.845.495h-.098c-1.003 0-1.977-.126-2.906-.362l.081.018V4.74a12.161 
 12.161 0 0 0 1.845.281l.044.003zm7.446.113-.531.178c-.321.118-.813.269-1.312.404l-.164.038c-1.322.354-2.84.56-4.406.566h-.003c-.346 0-.665-.009-.973-.029l-.423-.028v11.949l.364.031c.337.03.685.045 
 1.035.045a14.091 14.091 0 0 0 3.571-.472l-.098.022a14.415 14.415 0 0 0 2.801-1.014l-.087.038.227-.109V5.136zM18.747 24.092a.779.779 0 0 0-.563-.239l-.029.001h.001-.012a.885.885 0 0 
 0-.335.066l.006-.002a.774.774 0 0 0-.435.436l-.002.005a.865.865 0 0 0-.061.329v1.99l-.001.032c0 .136.029.265.081.382l-.002-.006a.707.707 0 0 0 .472.409c.097.027.197.041.297.041a.842.842 0 0 
 0 .825-.837v-.223h-.521v.189a.448.448 0 0 1-.032.168l.001-.003a.324.324 0 0 1-.075.112.363.363 0 0 1-.217.076.266.266 0 0 1-.243-.106v-.001a.463.463 0 0 1-.07-.247v-.021.001-1.856a.634.634 0 0 
 1 .064-.297.266.266 0 0 1 .256-.12h-.001.01c.091 0 .172.044.222.112l.001.001c.054.07.086.159.086.256v.012-.001.172h.515V24.712a.926.926 0 0 0-.066-.346l.002.006a.838.838 0 0 
 0-.174-.281zm3.091-.023a.922.922 0 0 0-.591-.219.919.919 0 0 0-.311.056.817.817 0 0 0-.474.437l-.002.005a.927.927 0 0 0-.076.386v1.909a.922.922 0 0 0 .076.391.775.775 0 0 
 0 .201.267c.08.073.173.131.275.168a.896.896 0 0 0 .903-.169l-.001.001a.821.821 0 0 0 .196-.267.937.937 0 0 0 .076-.391V24.716a.915.915 0 0 0-.079-.374l.002.006a.877.877 0 0 
 0-.196-.279zm-.243 2.574a.345.345 0 0 1-.103.276.381.381 0 0 1-.491-.001h.001a.338.338 0 0 1-.105-.246l.001-.031v.001-1.91l-.001-.029c0-.097.04-.184.105-.246a.381.381 0 0 
 1 .491.001h-.001a.34.34 0 0 1 .105.246l-.001.031v-.001 1.909zm4.302.852v-3.614h-.5l-.658 1.913h-.009l-.663-1.913h-.495v3.614h.516v-2.199h.009l.505 1.554h.258l.509-1.554h.009v2.198h.516zm2.933-3.36a.723.723 
 0 0 0-.292-.198 1.13 1.13 0 0 0-.353-.056h-.022.001-.767v3.613h.515v-1.411h.265a.937.937 0 0 0 .465-.099.76.76 0 0 0 .281-.273l.002-.003a.865.865 0 0 0 .118-.315c.02-.136.029-.273.028-.411a2.083 2.083 0 0 
 0-.05-.516.772.772 0 0 0-.19-.332zm-.265 1.101a.45.45 0 0 1-.049.191l.001-.003a.3.3 0 0 1-.131.126l-.002.001a.525.525 0 0 1-.216.046l-.028-.001h.001-.235v-1.229h.265l.025-.001c.075 
 0 .147.017.211.047l-.003-.001a.295.295 0 0 1 .12.132l.001.002a.516.516 0 0 1 .045.201v.24c0 .084.005.171 0 .248h-.005zm2.705-1.355h-.422l-.796 3.614h.515l.151-.776h.702l.151.776h.515l-.816-3.614zm-.476 
 2.345.253-1.31h.009l.252 1.31h-.515zm3.803-.168h-.009l-.777-2.177h-.495v3.614h.515v-2.173h.011l.787 2.173h.485v-3.613h-.515v2.177zm3.146-2.177-.414 
 1.437h-.011l-.414-1.437h-.545l.707 2.087v1.528h.515v-1.528l.707-2.086h-.546zm-20.432 4.635h.248v.696h.168v-.696h.247v-.143h-.663v.143zm2.087-
 .143-.325.839h.179l.069-.191h.335l.071.191h.184l-.334-.839h-.179zm-.026.507.114-.311.114.311h-.228zm2.088.022h.194v.108a.322.322 0 0 1-.199.071h-.012a.212.212 0 0 1-.166-.08.349.349 0 0 
 1-.062-.2l.001-.02v.001c0-.187.081-.28.241-.28l.018-.001c.083 0 .152.057.172.133v.001l.166-.032c-.036-.164-.154-.247-.356-.247h-.012a.423.423 0 0 0-.282.108.408.408 0 0 0-.121.324v-.001.02a.46.46 0 0 
 0 .108.296l-.001-.001a.408.408 0 0 0 .292.124l.027-.001h-.001.013a.505.505 0 0 0 .343-.134v-.331h-.364v.142zm2.106-.529h-.17v.839h.588v-.143h-.418v-.696zm1.781 0h-.17v.839h.17v-.839zm1.741.56-.344-.56h-
 .164v.839h.157v-.549l.337.548h.169v-.839h-.156v.561zm1.574-.091h.418V28.7h-.418v-.184h.45v-.143h-.62v.839h.637v-.143h-.467v-.227zm3.816-.139h-.331v-.331h-.168v.839h.168v-.367h.331v.367h.169v-.839h-.169v
 .331zm1.584.139h.42V28.7h-.42v-.184h.451v-.143h-.619v.839h.636v-.143h-.467v-.227zm2.147 0c.146-.022.22-.1.22-.233l.001-.024a.203.203 0 0 0-.083-.163h-.001a.465.465 0 0 0-.213-.05l-.034.001h.002-.356v.839h
 .169v-.351h.047c.033 0 .065.007.093.02l-.001-.001a.184.184 0 0 1 .06.061l.183.267h.201l-.102-.164a.59.59 0 0 0-.184-.2l-.002-.001zm-.17-.115h-.124v-.211h.133l.035-.001a.46.46 0 0 1 .139.022l-.003-.001a.107
 .107 0 0 1 .023.135v-.001a.114.114 0 0 1-.032.037.478.478 0 0 1-.14.021l-.033-.001h.001zm1.789.115h.418V28.7h-.418v-.184h.451v-.143h-.621v.839h.637v-.143h-.467v-.227z"/>
 </symbol>
 <symbol id="Logo3" viewBox="0 0 57 32">
 <title>Logo3</title>
 <path d="M19.417 26.187a.07.07 0 0 1 .046.018l.116.111a.964.964 0 0 1-.327.211 1.254 1.254 0 0 1-.434.076h-.032.002a1.213 1.213 0 0 1-.436-.071.953.953 0 0 1-.329-.2l.001.001a.884.884 0 0 
 1-.21-.302l-.002-.006a1.016 1.016 0 0 1-.075-.385v-.012.001-.021c0-.271.118-.515.304-.684l.001-.001c.1-.087.219-.155.349-.201.143-.048.296-.072.45-.07h.028c.139 0 .273.024
 .398.067l-.009-.003c.115.044.221.104.313.179l-.098.118a.12.12 0 0 1-.024.021.064.064 0 0 1-.034.009h-.006a.102.102 0 0 1-.043-.012l-.052-.032-.073-.041a.823.823 0 0 0-.225-.07l-.005-.001a1 1 0 0 
 0-.161-.013h-.013.001-.011a.963.963 0 0 0-.319.055l.007-.002a.673.673 0 0 0-.418.386.774.774 0 0 0-.059.302v.012-.001a.812.812 0 0 0 .059.318.662.662 0 0 0 .403.383.89.89 0 0 0 .299.051c.059
 .001.119-.003.178-.01a.696.696 0 0 0 .385-.164l-.001.001a.088.088 0 0 1 .055-.02zm3.358-.558a.974.974 0 0 1-.078.393.864.864 0 0 1-.218.304l-.001.001a1.01 1.01 0 0 1-.337.198l-.007.002a1.409 1.409 
 0 0 1-.894-.003l.01.003a1.016 1.016 0 0 1-.342-.202l.001.001a.893.893 0 0 1-.219-.303l-.002-.006a1.024 1.024 0 0 1 .003-.793l-.003.007a.925.925 0 0 1 .221-.309c.097-.085.213-.15.341-.194a1.383 1.383 
 0 0 1 .894.003l-.01-.003c.129.045.246.114.343.201a.903.903 0 0 1 .298.701zm-.305 0v-.017a.812.812 0 0 0-.058-.305l.002.006a.656.656 0 0 0-.396-.384l-.005-.001a1.027 1.027 0 0 
 0-.65.002l.007-.002a.682.682 0 0 0-.246.15.626.626 0 0 0-.156.232l-.001.004a.91.91 0 0 0 .003.638l-.002-.006a.652.652 0 0 0 .399.383l.005.001c.207.068.435.068.643 0a.685.685 0 0 
 0 .245-.148.662.662 0 0 0 .156-.236.817.817 0 0 0 .055-.316zm2.597.331.031.07c.011-.025.021-.048.033-.07a.576.576 0 0 1 .038-.069l.743-1.174c.015-.02.028-.033.043-.037s.033-.007
 .051-.007h.23v1.909h-.26v-1.463l-.001-.033.001-.035v.002l-.748 1.19a.111.111 0 0 1-.043.043h-.001a.13.13 0 0 1-.063.016H25.076a.134.134 0 0 1-.063-.016h.001a.111.111 0 0 
 1-.043-.043v-.001l-.77-1.198v1.532h-.251v-1.905h.229c.018 0 .036.002.053.007h-.001a.087.087 0 0 1 .041.037l.759 1.175a.348.348 0 0 1 .038.068zm2.796-.095v.715h-.29v-1.906h.649a1.37 1.37 0 
 0 1 .362.042.724.724 0 0 1 .256.119.499.499 0 0 1 .144.184l.001.003a.577.577 0 0 1 .05.244v.012a.53.53 0 0 1-.209.422l-.001.001a.748.748 0 0 1-.258.126 1.208 1.208 0 0 1-.327.044h-.024l-.351-
 .005zm0-.205h.352a.82.82 0 0 0 .226-.029.488.488 0 0 0 .164-.083l-.001.001a.365.365 0 0 0 .133-.282v-.005l.001-.021a.33.33 0 0 0-.03-.137l.001.002a.371.371 0 0 0-.101-.13l-.001-.001a.621.621 
 0 0 0-.345-.104l-.048.002h.002-.352v.786zm3.909.922h-.233a.111.111 0 0 1-.06-.018.116.116 0 0 1-.038-.044v-.001l-.197-.461h-.994l-.205.461a.108.108 0 0 1-.098.061h-.233l.872-1.909h.302l.884 
 1.909zm-1.44-.708h.821l-.347-.777a1.324 1.324 0 0 1-.065-.179l-.034.1a.755.755 0 0 1-.034.087l.002-.006-.343.775zm2.697-1.191c.017.008.032.02.044.034l1.272 1.439v-1.482h.26v1.909h-.148a.135.135 
 0 0 1-.057-.012h.001a.16.16 0 0 1-.046-.035l-1.271-1.438.001.033-.001.034v-.002 1.419h-.26v-1.909h.154a.15.15 0 0 1 .052.009zm3.719 1.14v.758h-.291v-.757l-.804-1.15h.267c.021 0 
 .04.006.056.016a.175.175 0 0 1 .039.043l.503.742a.8.8 0 0 1 .087.164l.002.005.038-.082a.624.624 0 0 1 .049-.087l.496-.747a.202.202 0 0 1 .037-.04.096.096 0 0 1 .058-.019h.269l-.805 1.155zM24.923 
 21.47c.127.014.254.025.384.035 1.962-.763 3.622-2.011 4.772-3.588s1.739-3.415 1.694-5.282l-2.162-1.878c.439 1.988.234 4.043-.594 5.935s-2.245 3.547-4.094 4.779z"/>
 <path d="m24.151 21.382.058.011c1.975-1.228 3.481-2.942 4.323-4.922s.981-4.133.4-6.181l-3.08-2.676c1.245 2.199 1.747 4.661 1.445 7.099-.301 2.437-1.392 4.75-3.147 
 6.669zm10.445-6.541c-.523 2.052-1.794 3.902-3.623 5.276-.5.38-1.064.737-1.658 1.043l-.065.03c1.49-.38 2.859-1.053 4.003-1.966s2.03-2.042 2.592-3.3l-1.249-1.084z"/>
 <path d="m34.107 14.539-1.779-1.545c-.034 1.762-.611 3.483-1.669 4.986s-2.562 2.732-4.352 3.559h.009c.399 0 .797-.021 1.194-.062 1.674-.594 3.151-1.538 4.303-2.748s1.939-2.65 
 2.294-4.189zm-9.698-8.054L22.287 4.64c-1.897.637-3.527 1.756-4.68 3.212s-1.772 3.179-1.778 4.946c.007 1.952.763 3.846 2.149 5.383 1.385 1.536 3.321 2.628 5.501 3.101 1.946-2.06 
 3.085-4.605 3.252-7.266s-.647-5.299-2.323-7.531zm14.599 7.769c-.007-2.316-1.07-4.535-2.955-6.173s-4.439-2.561-7.105-2.567a11.328 11.328 0 0 0-3.602.582l12.989 11.286a7.537 7.537 0 0 0 .672-3.128z"/>
 </symbol>
 <symbol id="Logo4" viewBox="0 0 57 32">
 <title>Logo4</title>
 <path d="M12.878 11.255h-.002c-1.279 0-2.316.921-2.316 2.058v.002c0 1.137 1.037 2.058 2.316 2.058h.002c1.279 0 2.316-.922 2.316-2.058v-.001c0-1.137-1.037-2.059-2.316-2.059zm17
 .093-.658c-.004-1.579-.711-3.092-1.967-4.209s-2.958-1.745-4.734-1.749c-1.777.003-3.481.631-4.737 1.748s-1.964 2.63-1.968 4.209v8.706s13.405-1.327 13.406-8.704v-.002zM5.867 22.16c.003 1.099.496 
 2.151 1.37 2.928s2.058 1.214 3.294 1.218c1.236-.003 2.42-.441 3.294-1.218s1.366-1.829 1.37-2.927v-6.058s-9.327.924-9.327 6.057zm4.663 1.085c-.242 0-.477-.063-.678-.183a1.136 1.136 0 0 1-
 .447-.48l-.003-.007a.951.951 0 0 1-.068-.634l-.001.007c.047-.211.163-.404.334-.556s.388-.255.625-.297a1.363 1.363 0 0 1 .715.064l-.009-.003c.223.082.414.221.548.4s.206.388.206.603a.963.963 
 0 0 1-.092.417 1.095 1.095 0 0 1-.263.352l-.001.001a1.323 1.323 0 0 1-.864.319h-.001v-.004zm9.426-.598h-.9v.93h-.469v-2.276h1.482v.38h-1.013v.588h.9v.378zm2.253-.156c0 .224-.039.42-.118.589a.893.893 
 Dzię0 0 1-.83.529h-.018.001a.943.943 0 0 1-.505-.136.917.917 0 0 1-.341-.382l-.002-.006a1.319 1.319 0 0 1-.123-.561v-.021.001-.112c0-.224.04-.421.12-.591a.895.895 0 0 1 .342-.392c.148-.092.316-.138
 .506-.138s.357.046.505.138a.888.888 0 0 1 .342.392c.081.17.122.366.122.589v.101zm-.475-.103c0-.238-.043-.42-.128-.544a.417.417 0 0 0-.348-.186h-.019.001-.018a.419.419 0 0 0-.346.183l-.001.001c-
 .085.122-.129.301-.13.538v.111c0 .232.043.412.128.54s.208.192.369.192h.018a.413.413 0 0 0 .343-.183l.001-.001c.084-.124.127-.304.128-.541v-.111zm1.995.592v-.013a.24.24 0 0 0-.093-.189h-.001a1.185 
 1.185 0 0 0-.338-.15c-.15-.047-.278-.1-.399-.163l.014.006c-.259-.14-.388-.328-.388-.564 0-.123.034-.233.103-.328a.691.691 0 0 1 .299-.227 1.13 1.13 0 0 1 .437-.081c.163 0 .307.029.435.089a.677.677 
 0 0 1 .295.249.646.646 0 0 1 .107.365h-.469c0-.104-.032-.185-.098-.242a.4.4 0 0 0-.276-.087.426.426 0 0 0-.267.074.228.228 0 0 0-.096.185v.006c0 .074.037.136.111.186.075.05.185.097.33.14.267.08.461
 .18.583.299s.183.267.183.444c0 .197-.075.352-.224.464s-.349.167-.601.167c-.175 0-.334-.032-.478-.096a.77.77 0 0 1-.328-.261l-.002-.002a.672.672 0 0 1-.112-.373v-.015.001h.47c0 .251.15.377.45.377a.442.442 
 0 0 0 .261-.067.223.223 0 0 0 .093-.182v-.009zm2.502-1.298h-.697v1.895h-.469v-1.895h-.686v-.38h1.853v.38zm1.637.909h-.9v.61h1.056v.377h-1.525v-2.276h1.522v.38h-1.053v.542h.9v.367zm1.274.153h-.373v.833H28
 .3v-2.276h.845c.269 0 .476.06.622.18s.219.289.219.508a.705.705 0 0 1-.101.389.69.69 0 0 1-.3.245l-.005.002.492.93v.021h-.503l-.427-.832zm-.373-.38h.379a.387.387 0 0 0 .273-.089.323.323 0 0 0 
 .097-.231v-.018.001c0-.108-.03-.192-.092-.253s-.154-.092-.28-.092h-.377v.683zm2.84.411v.802h-.469v-2.276h.887c.171 0 .321.031.45.094.13.062.23.151.3.267a.746.746 0 0 1 .105.392.657.657 0 0 
 1-.229.528c-.153.128-.363.193-.633.193h-.411zm0-.379h.419c.124 0 .219-.029.283-.087a.317.317 0 0 0 .099-.25v-.017a.372.372 0 0 0-.099-.254.37.37 0 0 0-.272-.106h-.43v.715zm2.965.195h-
 .9v.61h1.056v.377h-1.525v-2.276h1.522v.38h-1.053v.542h.9v.367zm2.176-.909h-.697v1.895h-.469v-1.895h-.687v-.38h1.853v.38zm1.637.909h-.899v.61h1.056v.377h-1.525v-2.276h1.522v.38h-1.053v.542h
 .9v.367zm1.274.153h-.373v.833h-.469v-2.276h.846c.269 0 .476.06.622.18s.219.289.219.508a.705.705 0 0 1-.101.389.687.687 0 0 1-.301.245l-.005.002.492.93v.021h-.503l-.427-.832zm-.374-.38h.378c.117 
 0 .209-.029.273-.089a.324.324 0 0 0 .097-.232v-.018.001a.338.338 0 0 0-.092-.253c-.06-.061-.154-.092-.279-.092h-.377v.683zm2.755.616v-.013a.237.237 0 0 0-.094-.189h-.001a1.185 1.185 0 0 
 0-.338-.15c-.15-.047-.278-.1-.399-.163l.014.006c-.259-.14-.388-.328-.388-.564 0-.123.035-.233.103-.328a.691.691 0 0 1 .299-.227 1.13 1.13 0 0 1 .437-.081c.163 0 .307.029.435.089a.677.677 0 0 
 1 .295.249.646.646 0 0 1 .107.365h-.469c0-.104-.032-.185-.098-.242a.4.4 0 0 0-.276-.087.426.426 0 0 0-.267.074.229.229 0 0 0-.096.186v.005c0 .074.037.136.111.186s.185.097.33.14c.267.08.461.18
 .583.299s.183.267.183.444c0 .197-.075.352-.224.464s-.349.167-.601.167c-.175 0-.334-.032-.478-.096a.77.77 0 0 1-.328-.261l-.002-.002a.672.672 0 0 1-.112-.373v-.015.001h.47c0 .251.15.377.45.377a.442.442 
 0 0 0 .261-.067.224.224 0 0 0 .094-.182v-.009z"/>
 </symbol>
 <symbol id="Logo5" viewBox="0 0 57 32">
 <title>Logo5</title>
 <path d="M14.27 23.859a.768.768 0 0 1 .197.56.756.756 0 0 1-.073.326l.002-.005a.83.83 0 0 1-.232.296l-.002.001a1.39 1.39 0 0 1-.885.24h.004-1.549v-3.301h1.517a1.377 1.377 0 0 
 1 .846.222l-.005-.003a.782.782 0 0 1 .227.277.71.71 0 0 1 .068.341.722.722 0 0 1-.176.505.842.842 0 0 1-.462.258.893.893 0 0 1 .523.283zm-1.816-.498h.649a.655.655 0 0 
 0 .412-.11.386.386 0 0 0 .109-.144l.001-.003a.358.358 0 0 0 .03-.145l-.001-.033v.001l.001-.028a.376.376 0 0 0-.031-.15l.001.002a.399.399 0 0 0-.108-.147h-.001a.665.665 0 0 
 0-.373-.113l-.054.002h.002-.638v.867zm1.124 1.266a.407.407 0 0 0 .118-.149l.001-.003a.37.37 0 0 0 .034-.158l-.001-.027v.001l.001-.024a.38.38 0 0 0-.037-.165l.001.002a.41.41 0 0 
 0-.121-.151l-.001-.001a.705.705 0 0 0-.397-.121l-.045.001h.002-.68v.908h.689a.727.727 0 0 0 .435-.115zm3.793.651-.843-1.291h-.317v1.291h-.726v-3.302h1.374a1.433 1.433 0 0 
 1 .96.284l-.004-.003a1.016 1.016 0 0 1 .329.735.99.99 0 0 1-.228.633l.001-.002a1.152 1.152 0 0 1-.649.335l-.006.001.899 1.319h-.789zm-1.161-1.74h.594c.412 0 .619-.166.619-.5l.001-.027a.464.464 0 0 
 0-.035-.176l.001.003a.494.494 0 0 0-.118-.171.68.68 0 0 0-.47-.133h.003-.601l.007 1.005zm5.129 1.075h-1.446l-.255.665h-.761l1.328-3.265h.823l1.323 3.265h-.761l-.25-.665zm-.194-
 .499-.529-1.394-.529 1.394h1.057zm5.16 1.164h-.72l-1.616-2.245v2.245h-.719v-3.302h.719l1.616 2.259v-2.259h.72v3.302zm4.113-.79a1.501 1.501 0 0 1-.652.582c-.28.132-.608.209-
 .955.209l-.062-.001h.003-1.282v-3.302h1.283l.06-.001c.345 0 .673.075.968.209l-.015-.006c.276.128.503.329.652.576a1.78 1.78 0 0 1 0 1.733zm-.825-.079c.196-.205.317-.482.318-.788 
 0-.289-.113-.569-.318-.788a1.317 1.317 0 0 0-.906-.281h.004-.5v2.138h.5a1.323 1.323 0 0 0 .905-.282l-.003.002zm-7.803-20.8s9.3 3.215 9.103 7.867v7.869s-9.294-3.216-9.1-7.869l-
 .003-7.867zm17.389 13.894a13.494 13.494 0 0 1 5.909-1.994v-2.464c-2.444.863-4.517 2.427-5.909 4.458z"/>
 <path d="M38.124 18.245c1.437-2.651 3.93-4.696 6.964-5.716V5.431s-13.245 4.58-12.965 11.205v11.203s.59-.205 1.519-.589c0-.358 0-.719.043-1.083.274-3.075 1.87-5.925 4.439-7.924z"/>
 <path d="M36.864 22.407c.069-.777.225-1.546.463-2.294-1.599 1.725-2.568 3.867-2.769 6.122-.02.213-.03.426-.036.645a36.805 36.805 0 0 0 
 2.761-1.334l-.214.105a10.624 10.624 0 0 1-.206-3.244zm.527.04a10.167 10.167 0 0 0 .175 3.003l-.012-.066c3.619-1.983 7.685-5.046 
 7.528-8.748v-.323c-2.586.265-5.004 1.3-6.885 2.946a10.02 10.02 0 0 0-.804 3.148l-.003.04z"/>
 </symbol>
 <symbol id="Logo6" viewBox="0 0 57 32">
 <title>Logo6</title>
 <path d="M28.493 14.618a1.563 1.563 0 0 1-.322-1.065v.005-1.538c0-.471.107-.829.321-1.075.213-.245.581-.367 1.101-.366.489 
 0 .837.105 1.042.313.224.266.333.591.308.919v.362h-.875v-.366a1.799 1.799 0 0 0-.026-.358.34.34 0 0 0-.125-.212l-.001-.001a.499.499 0 0 
 0-.279-.084l-.039.001h.002l-.038-.001a.53.53 0 0 0-.297.09l.002-.001a.415.415 0 0 0-.145.232v.003a1.74 1.74 0 0 0-.035.351v.031-.002 1.866c-.014
 .18.025.36.112.524.045.056.104.1.172.126l.003.001a.48.48 0 0 0 .228.029H29.6a.47.47 0 0 0 .311-.086l-.002.001a.37.37 0 0 0 .13-.224v-.002c.02-.124.03-.249.027-.374v-.379h.875v.346a1.397 
 1.397 0 0 1-.305.969l.002-.003c-.201.228-.544.342-1.047.342s-.884-.122-1.1-.375zm3.644.016c-.221-.24-.332-.588-.332-1.05v-1.618c0-.457.11-.803.332-1.037s.59-.351 1.109-.35c.515 0 .882.117 
 1.103.35.221.235.333.58.333 1.037v1.617c0 .457-.112.807-.337 1.049s-.59.361-1.1.361-.886-.122-1.109-.359zm1.516-.389a.902.902 0 0 0 .105-.478v-1.981a.872.872 0 0 0-.105-.474l.002.005a.425.425 
 0 0 0-.176-.128l-.003-.001a.473.473 0 0 0-.233-.027h.002a.49.49 0 0 0-.235.028l.003-.001a.416.416 0 0 0-.179.128l-.001.001a.855.855 0 0 0-.105.469v1.99a.888.888 0 0 0 .105.479.605.605 0 0 
 0 .639.116l-.004.001a.563.563 0 0 0 .185-.118v-.01zm2.082-3.619h.942l.708 2.984.725-2.984h.916l.093 4.307h-.678l-.073-2.994-.699 2.994h-.544l-.724-3.005-.067 3.005h-.685l.085-4.307zm4.441 
 0h1.468c.845 0 1.268.407 1.268 1.223 0 .781-.445 1.171-1.335 1.17h-.5v1.914h-.906l.005-4.308zm1.254 1.841a.707.707 0 0 0 .498-.136.699.699 0 0 0 .131-.486 1.325 1.325 0 0 
 0-.046-.4l.002.009a.317.317 0 0 0-.067-.119.386.386 0 0 0-.112-.085l-.002-.001a.913.913 0 0 0-.357-.071l-.05.001h.002-.351v1.287h.352zm2.789-1.841h.973l.998 4.307h-.845l-.197-.993h-.868l-
 .203.993h-.857l.998-4.307zm.831 2.816-.339-1.808-.339 1.808h.677zm1.946-2.816h.635l1.213 2.457v-2.457h.752v4.307h-.603l-1.221-2.565v2.565h-.777l.002-4.307zm4.361 2.665-1.009-2.659h.85l.616 
 1.708.578-1.708h.832l-.997 2.659v1.642h-.869V13.29zm-21.465 3.526v.225h-.739v1.75h-.31v-1.75H28.1v-.225h1.792zm2.318 1.976h-.246a.105.105 0 0 1-.061-.019.1.1 0 0 1-.039-.045v-.001l-
 .214-.469h-1.026l-.213.469a.126.126 0 0 1-.033.053.108.108 0 0 1-.062.019h-.245l.906-1.975h.315l.917 1.968zm-1.501-.734h.855l-.363-.804a1.278 1.278 0 0 1-.064-.176l-.003-.01-.034.105-
 .033.083-.358.803zm3.062.539a1.018 1.018 0 0 0 .316-.023 1.018 1.018 0 0 0 .252-.085v-.444h-.365a.076.076 0 0 1-.046-.016c-.006-.004-.01-.01-.014-.016a.034.034 0 0 1-.004-.018v-.153h
 .703v.757c-.11.068-.237.123-.372.158l-.01.002c-.075.019-.15.033-.227.041a2.598 2.598 0 0 1-.265.012h-.011c-.159 0-.312-.027-.455-.077l.01.003a1.123 1.123 0 0 1-.364-.208l.002.001a.952.952 
 0 0 1-.231-.307l-.002-.006a.965.965 0 0 1-.083-.397v-.013.001-.012c0-.145.03-.283.084-.407l-.003.007a.907.907 0 0 1 .234-.313c.103-.089.227-.158.363-.205.155-.051.32-.076.485-.074.084 
 0 .169.005.252.017.074.011.146.027.215.05.064.02.124.047.181.078.055.031.108.065.158.103l-.087.122a.073.073 0 0 1-.029.026.093.093 0 0 1-.042.011.111.111 0 0 1-.057-.016h.001a.892.892 
 0 0 1-.094-.05l.005.003a.814.814 0 0 0-.115-.052l-.006-.002a1.027 1.027 0 0 0-.16-.043l-.007-.001a1.34 1.34 0 0 0-.218-.017h-.013.001-.011c-.121 0-.238.02-.346.057l.008-.002a.774.774 0 0 
 0-.267.156.672.672 0 0 0-.166.241l-.002.005a.917.917 0 0 0 .002.665l-.002-.006a.76.76 0 0 0 .445.405c.115.034.237.047.359.039zm2.888-.031h.989v.225h-1.291v-1.975h.309l-.007 1.75zm2.018
 .226h-.309v-1.975h.309v1.975zm1.153-1.966a.14.14 0 0 1 .047.036l1.324 1.489-.001-.035.001-.037v.002-1.472h.27v1.984h-.166a.14.14 0 0 1-.058-.012h.001a.162.162 0 0 1-.048-.037l-1.323-1
 .488v1.536h-.259v-1.975h.161c.018 0 .035.003.051.009zm3.923-.01v.217h-1.098v.652h.89v.21h-.89v.674h1.098v.218h-1.417v-1.971h1.417zm-32.467-12.2 13.757 3.372v11.818l-13.757-3.371V4.616zm-
 .882-1.008V17.01l15.52 3.806V7.417L10.404 3.61z"/>
 <path d="M18.722 27.036 3.2 23.227V9.828l15.522 3.807v13.401z"/>
 <path d="m10.661 4.465 13.578 3.33-5.774 4.987L4.886 9.45l5.776-4.986zm-.257-.856L3.2 9.828l15.522 3.808 7.202-6.22-15.52-3.807zm9.191 22.673 6.329-5.466-6.33-1.552v7.019z"/>
 </symbol>
 <symbol id="telefon" viewBox="0 0 20 32">
 <title>telefon</title>
 <path d="M17 0H3C1.346 0 0 1.346 0 3v26c0 1.654 1.346 3 3 3h14c1.654 0 3-1.346 3-3V3c0-1.654-1.346-3-3-3zM3 2h14a1 1 0 0 1 1 1v21H2V3a1 1 0 0 1 1-1zm14 28H3a1 1 0 0 1-1-1v-3h16v3a1 1 0 0 1-1 1z"/>
 </symbol>
 <symbol id="twitter" viewBox="0 0 32 32">
 <title>linkedin</title>
 <path d="M32 7.075a12.941 12.941 0 0 1-3.769 1.031 6.601 6.601 0 0 0 2.887-3.631 13.21 13.21 0 0 1-4.169 1.594A6.565 6.565 0 0 0 22.155 4a6.563 6.563 0 0 0-6.563 6.563c0 .512.056 1.012.169 
 1.494A18.635 18.635 0 0 1 2.23 5.195a6.56 6.56 0 0 0-.887 3.3 6.557 6.557 0 0 0 2.919 5.463 6.565 6.565 0 0 1-2.975-.819v.081a6.565 6.565 0 0 0 5.269 6.437 6.574 6.574 0 0 1-2.968.112 6.588 6.588 
 0 0 0 6.131 4.563 13.17 13.17 0 0 1-9.725 2.719 18.568 18.568 0 0 0 10.069 2.95c12.075 0 18.681-10.006 18.681-18.681 0-.287-.006-.569-.019-.85A13.216 13.216 0 0 0 32 7.076z"/>
</symbol>
</defs>
</svg>